<?xml version="1.0" standalone="no"?>
<!DOCTYPE svg PUBLIC "-//W3C//DTD SVG 20010904//EN"
 "http://www.w3.org/TR/2001/REC-SVG-20010904/DTD/svg10.dtd">
<svg version="1.0" xmlns="http://www.w3.org/2000/svg"
 width="736.000000pt" height="736.000000pt" viewBox="0 0 736.000000 736.000000"
 preserveAspectRatio="xMidYMid meet">

<g transform="translate(0.000000,736.000000) scale(0.100000,-0.100000)"
fill="#000000" stroke="none">
<path d="M3480 6381 c-950 -81 -1790 -653 -2210 -1506 -131 -266 -206 -505
-252 -796 -29 -192 -32 -580 -5 -764 71 -476 239 -881 524 -1264 107 -143 369
-407 510 -514 302 -229 644 -393 1003 -481 221 -53 331 -68 577 -73 308 -7
512 16 782 88 932 248 1680 1006 1916 1939 187 739 54 1532 -361 2157 -143
215 -286 380 -470 542 -409 360 -879 575 -1438 657 -121 17 -443 26 -576 15z
m375 -142 c654 -43 1230 -307 1680 -770 216 -223 340 -397 471 -664 122 -250
197 -493 241 -782 23 -154 23 -517 -1 -678 -83 -574 -330 -1071 -730 -1470
-494 -492 -1126 -755 -1817 -755 -205 0 -330 12 -520 50 -500 100 -955 352
-1324 731 -577 594 -827 1409 -684 2234 118 684 527 1301 1121 1692 284 188
628 323 968 382 226 39 359 46 595 30z"/>
<path d="M2895 5042 c-78 -49 -152 -171 -191 -317 -27 -100 -27 -389 0 -490
27 -102 80 -209 128 -255 197 -189 428 94 428 524 0 55 -5 129 -10 164 -28
169 -103 320 -184 367 -53 31 -127 34 -171 7z"/>
<path d="M4373 5025 c-79 -34 -162 -164 -205 -320 -18 -67 -22 -108 -22 -250
-1 -148 2 -181 22 -255 87 -318 290 -405 436 -187 85 129 121 289 113 507 -5
154 -24 242 -72 345 -65 137 -175 202 -272 160z"/>
<path d="M2180 3549 c-97 -74 -252 -129 -362 -129 -55 0 -88 -22 -88 -59 0
-15 5 -32 12 -39 14 -14 130 -16 194 -3 l41 8 22 -111 c141 -714 777 -1260
1557 -1337 350 -34 689 40 1014 223 156 87 270 176 415 322 253 255 385 493
450 810 6 27 8 28 43 22 20 -4 69 -9 108 -13 70 -6 72 -5 90 22 16 24 16 30 3
53 -16 28 -35 35 -144 50 -91 13 -168 42 -246 95 -120 81 -112 77 -139 64 -16
-8 -26 -23 -28 -41 -3 -23 5 -36 42 -71 25 -23 72 -56 104 -73 l59 -32 -8 -52
c-40 -250 -201 -533 -428 -757 -259 -253 -553 -414 -891 -487 -68 -15 -126
-19 -290 -18 -183 0 -219 3 -331 27 -226 48 -420 128 -604 251 -351 236 -580
563 -664 949 -30 140 -32 136 47 180 110 62 158 117 134 153 -6 10 -45 34 -54
34 -2 0 -28 -19 -58 -41z"/>
</g>
</svg>
