<svg width="29" height="20" viewBox="0 0 29 20" fill="none" xmlns="http://www.w3.org/2000/svg">
<path d="M27.4694 8.33334H1.53056C0.685253 8.33334 0 9.04223 0 9.91668V10.0833C0 10.9578 0.685253 11.6667 1.53056 11.6667H27.4694C28.3147 11.6667 29 10.9578 29 10.0833V9.91668C29 9.04223 28.3147 8.33334 27.4694 8.33334Z" fill="#F5F5F5"/>
<path d="M27.4694 16.6667H1.53056C0.685253 16.6667 0 17.3755 0 18.25V18.4167C0 19.2911 0.685253 20 1.53056 20H27.4694C28.3147 20 29 19.2911 29 18.4167V18.25C29 17.3755 28.3147 16.6667 27.4694 16.6667Z" fill="#F5F5F5"/>
<path d="M27.4694 0H1.53056C0.685253 0 0 0.708882 0 1.58333V1.75C0 2.62445 0.685253 3.33333 1.53056 3.33333H27.4694C28.3147 3.33333 29 2.62445 29 1.75V1.58333C29 0.708882 28.3147 0 27.4694 0Z" fill="#F5F5F5"/>
</svg>
