<?xml version="1.0" standalone="no"?>
<!DOCTYPE svg PUBLIC "-//W3C//DTD SVG 20010904//EN"
 "http://www.w3.org/TR/2001/REC-SVG-20010904/DTD/svg10.dtd">
<svg version="1.0" xmlns="http://www.w3.org/2000/svg"
 width="732.000000pt" height="426.000000pt" viewBox="0 0 732.000000 426.000000"
 preserveAspectRatio="xMidYMid meet">

<g transform="translate(0.000000,426.000000) scale(0.100000,-0.100000)"
fill="#000000" stroke="none">
<path d="M3338 4063 c23 -2 59 -2 80 0 20 2 1 4 -43 4 -44 0 -61 -2 -37 -4z"/>
<path d="M3240 4050 c0 -5 4 -10 9 -10 6 0 13 5 16 10 3 6 -1 10 -9 10 -9 0
-16 -4 -16 -10z"/>
<path d="M3490 4050 c19 -13 30 -13 30 0 0 6 -10 10 -22 10 -19 0 -20 -2 -8
-10z"/>
<path d="M3208 4033 c7 -3 16 -2 19 1 4 3 -2 6 -13 5 -11 0 -14 -3 -6 -6z"/>
<path d="M3558 4033 c6 -2 18 -2 25 0 6 3 1 5 -13 5 -14 0 -19 -2 -12 -5z"/>
<path d="M3149 3993 l-24 -28 30 25 c17 14 32 26 34 28 2 1 0 2 -6 2 -5 0 -20
-12 -34 -27z"/>
<path d="M3618 4013 c7 -3 16 -2 19 1 4 3 -2 6 -13 5 -11 0 -14 -3 -6 -6z"/>
<path d="M3270 3992 c-65 -25 -134 -99 -162 -175 l-23 -62 -6 45 c-5 41 -6 39
-7 -22 -2 -67 -3 -68 -39 -92 -160 -102 -222 -303 -202 -647 7 -119 39 -322
60 -376 7 -20 12 -23 23 -14 22 19 175 70 228 77 45 6 48 9 58 45 6 21 9 83 8
136 l-3 97 -41 8 c-27 6 -52 20 -76 46 -32 34 -68 109 -68 141 0 7 -9 24 -20
38 -21 27 -27 63 -10 63 6 0 10 -4 10 -10 0 -15 19 -12 37 5 14 14 14 18 -2
35 -16 18 -16 19 17 24 18 3 49 7 68 8 54 4 32 23 -28 23 -28 0 -52 4 -52 8 0
11 41 107 46 107 2 0 27 -18 56 -40 29 -22 64 -43 77 -47 49 -12 157 -72 185
-102 23 -24 38 -31 66 -31 43 0 60 -14 60 -51 0 -53 -52 -87 -101 -65 -13 5
-20 -2 -32 -33 -9 -22 -36 -56 -62 -77 -25 -21 -45 -42 -45 -46 0 -18 40 -6
71 22 l34 29 12 -62 c7 -34 12 -77 13 -96 0 -19 4 -48 10 -65 5 -17 12 -43 15
-58 4 -20 12 -28 26 -28 38 0 10 -16 -48 -29 -32 -7 -72 -16 -89 -22 -17 -5
-69 -9 -117 -9 -51 0 -87 -4 -87 -10 0 -6 40 -10 101 -10 109 0 200 18 261 53
34 19 42 19 95 8 64 -14 182 -55 228 -80 142 -77 261 -212 300 -341 18 -61
116 -262 238 -488 l18 -33 68 64 c81 76 148 104 344 141 71 14 152 36 181 49
98 45 196 155 196 219 0 73 -70 313 -131 446 -16 35 -29 68 -29 73 0 5 -4 9
-10 9 -5 0 -10 7 -10 16 0 8 -5 12 -11 9 -6 -4 -9 -1 -8 6 3 17 -8 44 -34 84
-17 27 -18 28 -11 5 3 -14 12 -28 18 -32 6 -4 7 -11 2 -15 -5 -4 -11 -2 -13 5
-3 7 -43 66 -90 130 -336 460 -802 837 -1208 978 -104 35 -283 44 -355 16z"/>
<path d="M3658 4003 c7 -3 16 -2 19 1 4 3 -2 6 -13 5 -11 0 -14 -3 -6 -6z"/>
<path d="M3715 3980 c11 -5 27 -9 35 -9 9 0 8 4 -5 9 -11 5 -27 9 -35 9 -9 0
-8 -4 5 -9z"/>
<path d="M3105 3939 c-10 -30 -2 -32 12 -3 6 13 7 24 3 24 -5 0 -12 -9 -15
-21z"/>
<path d="M3803 3940 c20 -11 43 -20 49 -20 7 0 -4 9 -25 20 -20 11 -43 20 -49
20 -7 0 4 -9 25 -20z"/>
<path d="M3870 3910 c0 -5 5 -10 11 -10 5 0 7 5 4 10 -3 6 -8 10 -11 10 -2 0
-4 -4 -4 -10z"/>
<path d="M3082 3880 c0 -14 2 -19 5 -12 2 6 2 18 0 25 -3 6 -5 1 -5 -13z"/>
<path d="M3940 3870 c8 -5 20 -10 25 -10 6 0 3 5 -5 10 -8 5 -19 10 -25 10 -5
0 -3 -5 5 -10z"/>
<path d="M4010 3831 c0 -9 30 -24 36 -18 2 1 -6 8 -16 15 -11 7 -20 8 -20 3z"/>
<path d="M4060 3801 c0 -9 30 -24 36 -18 2 1 -6 8 -16 15 -11 7 -20 8 -20 3z"/>
<path d="M4165 3728 c16 -15 34 -28 39 -28 5 0 -4 10 -20 22 -44 33 -53 36
-19 6z"/>
<path d="M4220 3687 c0 -3 12 -12 26 -22 15 -9 23 -12 20 -6 -7 11 -46 35 -46
28z"/>
<path d="M4280 3644 c0 -5 13 -20 30 -32 38 -29 51 -29 14 0 -16 12 -32 27
-36 33 -5 7 -8 7 -8 -1z"/>
<path d="M4350 3576 c0 -2 7 -7 16 -10 8 -3 12 -2 9 4 -6 10 -25 14 -25 6z"/>
<path d="M4441 3499 c31 -30 79 -78 108 -108 28 -30 51 -51 51 -47 0 12 -130
144 -175 178 -30 23 -26 17 16 -23z"/>
<path d="M3206 3383 c-14 -14 -4 -22 49 -39 55 -17 73 -15 60 6 -12 19 -97 45
-109 33z"/>
<path d="M4625 3310 c10 -11 20 -20 23 -20 3 0 -3 9 -13 20 -10 11 -20 20 -23
20 -3 0 3 -9 13 -20z"/>
<path d="M3067 3303 c-4 -3 -7 -18 -7 -31 0 -14 -8 -34 -17 -44 -12 -14 -14
-21 -5 -30 17 -17 44 -2 37 21 -5 16 0 20 27 23 23 2 34 9 37 22 5 31 -51 61
-72 39z"/>
<path d="M3298 3292 c-52 -3 -59 -6 -64 -27 -8 -34 2 -45 42 -45 27 0 34 4 34
19 0 26 18 37 26 17 7 -18 39 -22 49 -6 3 5 -2 17 -12 27 -14 14 -31 17 -75
15z"/>
<path d="M4660 3272 c0 -5 10 -17 22 -28 l21 -19 -18 28 c-18 28 -25 33 -25
19z"/>
<path d="M3459 3263 c-19 -5 -42 -50 -34 -64 7 -11 38 4 66 32 30 30 14 45
-32 32z"/>
<path d="M5790 3257 c0 -8 7 -20 15 -27 8 -7 15 -19 15 -27 0 -8 5 -11 10 -8
15 9 12 20 -15 49 -16 17 -25 22 -25 13z"/>
<path d="M3146 3205 c-8 -9 -13 -22 -10 -30 7 -17 44 -21 44 -5 0 6 -4 10 -9
10 -5 0 -7 9 -4 20 6 24 0 25 -21 5z"/>
<path d="M4722 3195 c12 -14 23 -25 25 -25 2 0 -4 11 -13 25 -9 14 -20 25 -25
25 -5 0 1 -11 13 -25z"/>
<path d="M3286 3201 c-7 -11 3 -41 13 -41 18 0 30 24 20 37 -13 15 -26 17 -33
4z"/>
<path d="M5838 3173 c-3 -10 1 -25 9 -32 20 -18 22 -11 8 23 -10 24 -13 26
-17 9z"/>
<path d="M3247 3134 c-3 -4 -32 -9 -64 -13 -71 -7 -76 -25 -9 -29 53 -3 96 12
96 35 0 14 -12 17 -23 7z"/>
<path d="M4791 3105 c13 -23 49 -67 49 -59 0 5 -13 23 -28 39 -15 17 -24 26
-21 20z"/>
<path d="M5870 3100 c0 -11 4 -20 9 -20 5 0 7 9 4 20 -3 11 -7 20 -9 20 -2 0
-4 -9 -4 -20z"/>
<path d="M2360 3100 c-25 -15 1 -30 73 -43 37 -6 68 -16 71 -23 2 -6 -15 -26
-39 -43 -70 -50 -165 -181 -165 -227 0 -32 30 -11 54 39 26 51 69 102 154 181
46 43 52 61 22 69 -11 3 -20 13 -20 22 0 14 -3 15 -15 5 -8 -7 -15 -8 -15 -3
0 10 -65 33 -91 33 -8 0 -21 -5 -29 -10z"/>
<path d="M5880 3061 c0 -6 5 -13 10 -16 6 -3 10 1 10 9 0 9 -4 16 -10 16 -5 0
-10 -4 -10 -9z"/>
<path d="M4852 3010 c7 -10 14 -18 15 -16 6 6 -9 36 -18 36 -5 0 -4 -9 3 -20z"/>
<path d="M5902 3010 c0 -14 2 -19 5 -12 2 6 2 18 0 25 -3 6 -5 1 -5 -13z"/>
<path d="M4880 2975 c0 -5 5 -17 10 -25 5 -8 10 -10 10 -5 0 6 -5 17 -10 25
-5 8 -10 11 -10 5z"/>
<path d="M5922 2945 c0 -16 2 -22 5 -12 2 9 2 23 0 30 -3 6 -5 -1 -5 -18z"/>
<path d="M6623 2963 c9 -2 25 -2 35 0 9 3 1 5 -18 5 -19 0 -27 -2 -17 -5z"/>
<path d="M2485 2938 c-61 -33 -148 -168 -129 -199 10 -16 34 -9 34 9 0 34 33
87 84 134 33 31 47 51 41 57 -7 6 -17 6 -30 -1z"/>
<path d="M6568 2943 c6 -2 18 -2 25 0 6 3 1 5 -13 5 -14 0 -19 -2 -12 -5z"/>
<path d="M6500 2931 c0 -5 -13 -12 -30 -16 -16 -4 -30 -11 -30 -16 0 -13 12
-11 46 10 17 10 40 21 50 24 13 3 11 5 -8 6 -16 0 -28 -3 -28 -8z"/>
<path d="M5933 2865 c0 -22 2 -30 4 -17 2 12 2 30 0 40 -3 9 -5 -1 -4 -23z"/>
<path d="M5465 2883 c11 -3 25 -9 30 -14 6 -4 31 -10 55 -13 25 -3 36 -3 25 0
-11 3 -37 12 -58 20 -20 8 -45 13 -55 13 -13 -1 -13 -2 3 -6z"/>
<path d="M6390 2880 c0 -6 -8 -14 -17 -17 -48 -19 -203 -157 -203 -182 0 -6
-4 -11 -10 -11 -5 0 -10 -4 -10 -9 0 -5 40 31 90 80 49 49 94 89 100 89 5 0
29 14 52 30 33 25 37 30 20 30 -12 0 -22 -5 -22 -10z"/>
<path d="M5630 2820 c0 -5 5 -10 10 -10 6 0 10 5 10 10 0 6 -4 10 -10 10 -5 0
-10 -4 -10 -10z"/>
<path d="M5670 2812 c-7 -3 -1 -11 13 -21 86 -56 164 -139 189 -199 5 -14 7
-13 7 4 1 12 -8 32 -20 45 -11 13 -29 34 -39 46 -10 12 -23 31 -30 42 -6 12
-16 21 -23 21 -7 0 -29 15 -49 33 -20 18 -41 31 -48 29z"/>
<path d="M5950 2655 c0 -71 2 -126 5 -124 7 7 8 239 1 246 -3 4 -6 -51 -6
-122z"/>
<path d="M6121 2613 c-1 -6 -4 -20 -7 -30 -5 -17 -5 -17 6 0 6 10 9 23 6 30
-3 9 -5 9 -5 0z"/>
<path d="M5885 2560 c3 -5 8 -10 11 -10 2 0 4 5 4 10 0 6 -5 10 -11 10 -5 0
-7 -4 -4 -10z"/>
<path d="M6091 2544 c0 -11 3 -14 6 -6 3 7 2 16 -1 19 -3 4 -6 -2 -5 -13z"/>
<path d="M1387 2476 c-4 -10 0 -12 14 -9 22 6 26 23 5 23 -8 0 -16 -6 -19 -14z"/>
<path d="M1341 2425 c-13 -14 -22 -27 -20 -29 2 -2 17 9 32 25 16 16 25 29 20
29 -4 0 -19 -12 -32 -25z"/>
<path d="M939 2407 c-94 -35 -146 -111 -136 -198 3 -27 9 -54 12 -59 3 -6 40
-10 81 -10 68 0 74 2 74 20 0 60 90 150 150 150 38 0 20 41 -30 72 -56 34
-104 42 -151 25z"/>
<path d="M1277 2359 c-16 -16 -25 -29 -20 -29 10 0 57 49 52 54 -2 2 -17 -9
-32 -25z"/>
<path d="M1205 2289 c-19 -17 -35 -37 -35 -45 0 -21 9 -17 38 17 54 64 53 77
-3 28z"/>
<path d="M3195 2234 c-204 -68 -261 -83 -312 -84 -34 0 -72 4 -85 10 -13 5
-93 37 -178 70 -85 34 -159 66 -165 71 -27 26 -35 -15 -11 -59 23 -43 46 -99
46 -111 0 -6 5 -11 10 -11 6 0 10 -8 10 -18 0 -10 7 -27 15 -38 9 -12 15 -46
16 -99 2 -140 12 -210 29 -210 12 0 15 15 12 90 l-2 90 19 -40 c11 -22 29 -62
41 -90 36 -87 22 -77 170 -119 33 -10 58 -12 64 -6 5 5 29 -8 60 -34 64 -54
160 -116 181 -116 26 0 17 25 -17 44 -77 45 -168 119 -168 137 0 36 29 32 85
-10 30 -22 59 -41 65 -41 5 0 10 -4 10 -8 0 -15 80 -44 93 -34 7 5 38 13 70
16 31 4 57 11 57 16 0 4 46 20 103 35 100 26 157 45 157 50 0 4 -34 200 -54
315 -9 47 -22 123 -31 170 -8 47 -15 88 -15 93 0 13 -20 7 -275 -79z"/>
<path d="M3872 2272 c-1 -18 -6 -63 -12 -100 -10 -71 -26 -261 -36 -423 l-6
-96 -36 -11 c-21 -6 -59 -17 -87 -26 -27 -8 -67 -18 -87 -21 -24 -5 -38 -13
-38 -22 0 -12 7 -14 28 -9 15 4 41 10 57 13 17 3 35 9 40 13 6 4 30 11 55 15
25 4 50 10 55 14 6 3 35 12 65 19 89 20 122 29 185 47 33 9 80 21 105 26 25 6
52 14 61 19 9 4 37 12 63 15 43 7 68 26 53 41 -3 3 -26 1 -51 -5 -25 -6 -67
-16 -93 -22 -27 -5 -57 -14 -68 -19 -11 -5 -42 -14 -70 -20 -27 -6 -60 -14
-71 -17 -18 -4 -26 5 -51 54 -16 32 -39 76 -51 98 -21 39 -21 46 -11 180 5 77
8 169 6 205 -2 36 -4 50 -5 32z"/>
<path d="M1548 2283 c-16 -2 -28 -9 -28 -15 0 -6 10 -8 23 -4 12 3 28 6 35 6
6 0 12 5 12 10 0 6 -3 9 -7 9 -5 -1 -20 -4 -35 -6z"/>
<path d="M5682 2218 c2 -61 2 -61 5 -13 3 27 9 55 15 62 8 10 6 13 -6 13 -13
0 -16 -11 -14 -62z"/>
<path d="M5880 2260 c0 -11 5 -20 10 -20 6 0 10 6 10 14 0 8 6 17 13 19 6 3 2
6 -10 6 -17 1 -23 -5 -23 -19z"/>
<path d="M6070 2270 c0 -5 6 -10 14 -10 8 0 18 5 21 10 3 6 -3 10 -14 10 -12
0 -21 -4 -21 -10z"/>
<path d="M6268 2267 c6 -7 13 -44 15 -82 l3 -70 2 83 c2 70 0 82 -14 82 -12 0
-14 -3 -6 -13z"/>
<path d="M1418 2253 c12 -2 32 -2 45 0 12 2 2 4 -23 4 -25 0 -35 -2 -22 -4z"/>
<path d="M1306 2240 c-30 -3 -51 -11 -54 -19 -4 -11 2 -12 24 -7 16 4 45 10
64 14 49 10 25 19 -34 12z"/>
<path d="M6093 2210 c0 -25 2 -35 4 -22 2 12 2 32 0 45 -2 12 -4 2 -4 -23z"/>
<path d="M5873 2165 c0 -22 2 -30 4 -17 2 12 2 30 0 40 -3 9 -5 -1 -4 -23z"/>
<path d="M6112 2105 c0 -16 2 -22 5 -12 2 9 2 23 0 30 -3 6 -5 -1 -5 -18z"/>
<path d="M5850 2078 c0 -19 2 -20 10 -8 13 19 13 30 0 30 -5 0 -10 -10 -10
-22z"/>
<path d="M5668 2070 c-4 -14 -8 -38 -8 -55 1 -25 2 -27 11 -12 6 9 9 34 7 55
-3 33 -4 35 -10 12z"/>
<path d="M6122 2020 c0 -19 2 -27 5 -17 2 9 2 25 0 35 -3 9 -5 1 -5 -18z"/>
<path d="M5904 1920 c0 -69 1 -97 3 -62 2 34 2 90 0 125 -2 34 -3 6 -3 -63z"/>
<path d="M6064 1955 c0 -49 1 -71 3 -48 2 23 2 64 0 90 -2 26 -3 8 -3 -42z"/>
<path d="M1176 2006 c-10 -17 -12 -26 -4 -28 6 -2 15 -26 19 -54 4 -27 11 -61
14 -76 6 -23 4 -27 -21 -31 l-29 -4 31 -2 c23 -1 39 -10 58 -35 14 -19 26 -37
26 -40 0 -3 -190 -7 -422 -8 l-423 -3 -3 -27 c-3 -28 -3 -28 55 -28 79 0 83
-4 72 -70 -4 -30 -13 -93 -18 -140 -6 -47 -17 -139 -26 -205 -9 -66 -20 -154
-25 -195 -5 -41 -23 -183 -40 -315 -46 -350 -46 -353 -26 -361 27 -10 39 10
47 78 5 35 20 153 34 263 14 110 32 252 40 315 8 63 21 169 30 235 15 118 28
215 41 325 4 30 12 58 18 62 18 12 1054 10 1061 -2 4 -6 20 -117 36 -248 17
-130 35 -241 40 -247 6 -5 9 -2 9 9 0 33 63 114 118 150 30 20 51 36 47 36
-13 0 -79 -43 -102 -66 -28 -30 -38 -17 -46 56 -3 30 -13 110 -22 178 -8 68
-13 127 -10 133 4 5 26 9 51 9 44 0 45 1 42 28 l-3 27 -178 3 -178 2 24 33
c14 17 32 46 41 64 19 39 49 172 42 190 -4 10 -51 13 -205 13 l-199 0 -16 -24z"/>
<path d="M5842 2000 c0 -19 2 -27 5 -17 2 9 2 25 0 35 -3 9 -5 1 -5 -18z"/>
<path d="M6291 1990 c1 -67 17 -99 18 -35 0 28 -4 57 -9 65 -7 11 -10 3 -9
-30z"/>
<path d="M1127 1962 c-10 -10 -17 -22 -17 -27 0 -4 9 2 20 15 11 13 20 25 20
27 0 7 -8 2 -23 -15z"/>
<path d="M6142 1920 c0 -19 2 -27 5 -17 2 9 2 25 0 35 -3 9 -5 1 -5 -18z"/>
<path d="M5822 1915 c0 -16 2 -22 5 -12 2 9 2 23 0 30 -3 6 -5 -1 -5 -18z"/>
<path d="M5653 1840 c0 -47 2 -66 4 -42 2 23 2 61 0 85 -2 23 -4 4 -4 -43z"/>
<path d="M1110 1863 c0 -5 9 -18 20 -28 11 -10 20 -16 20 -13 0 3 -9 15 -20
28 -11 13 -20 19 -20 13z"/>
<path d="M5812 1835 c0 -16 2 -22 5 -12 2 9 2 23 0 30 -3 6 -5 -1 -5 -18z"/>
<path d="M6152 1835 c0 -16 2 -22 5 -12 2 9 2 23 0 30 -3 6 -5 -1 -5 -18z"/>
<path d="M5496 1828 c-3 -13 -10 -64 -17 -115 -6 -51 -17 -93 -23 -95 -10 -4
-53 -3 -123 0 -29 2 -33 6 -44 45 -16 55 -33 74 -25 27 3 -19 3 -28 -1 -20 -3
8 -9 17 -13 20 -4 3 -17 29 -30 58 -22 48 -40 67 -40 41 0 -6 16 -47 34 -91
28 -64 32 -80 20 -85 -12 -4 -14 -39 -12 -212 l2 -206 6 200 c3 110 7 201 8
203 1 1 63 2 137 2 l135 0 3 -202 2 -203 3 204 c2 173 0 205 -13 215 -14 10
-14 20 0 96 17 99 19 140 5 140 -5 0 -12 -10 -14 -22z"/>
<path d="M6314 1725 c0 -55 1 -76 3 -47 2 29 2 74 0 100 -2 26 -3 2 -3 -53z"/>
<path d="M5235 1780 c4 -19 12 -39 17 -45 7 -7 8 2 3 25 -4 19 -12 40 -17 45
-7 7 -8 -2 -3 -25z"/>
<path d="M5792 1750 c0 -19 2 -27 5 -17 2 9 2 25 0 35 -3 9 -5 1 -5 -18z"/>
<path d="M6043 1705 c0 -44 2 -61 4 -37 2 23 2 59 0 80 -2 20 -4 1 -4 -43z"/>
<path d="M6173 1735 c0 -22 2 -30 4 -17 2 12 2 30 0 40 -3 9 -5 -1 -4 -23z"/>
<path d="M5775 1677 c-4 -10 -5 -21 -1 -24 10 -10 18 4 13 24 -4 17 -4 17 -12
0z"/>
<path d="M5633 1625 c0 -33 2 -45 4 -27 2 18 2 45 0 60 -2 15 -4 0 -4 -33z"/>
<path d="M6180 1653 c0 -12 5 -25 10 -28 13 -8 13 15 0 35 -8 12 -10 11 -10
-7z"/>
<path d="M5924 1505 c0 -77 2 -107 3 -67 2 40 2 103 0 140 -2 37 -3 4 -3 -73z"/>
<path d="M5763 1585 c0 -22 2 -30 4 -17 2 12 2 30 0 40 -3 9 -5 -1 -4 -23z"/>
<path d="M2890 1596 c0 -25 158 -136 194 -136 29 0 17 20 -30 48 -26 15 -51
32 -58 37 -31 28 -86 65 -95 65 -6 0 -11 -6 -11 -14z"/>
<path d="M6203 1545 c0 -22 2 -30 4 -17 2 12 2 30 0 40 -3 9 -5 -1 -4 -23z"/>
<path d="M6033 1480 c0 -47 2 -66 4 -42 2 23 2 61 0 85 -2 23 -4 4 -4 -43z"/>
<path d="M6333 1455 c0 -44 2 -61 4 -37 2 23 2 59 0 80 -2 20 -4 1 -4 -43z"/>
<path d="M5740 1496 c0 -31 6 -34 13 -6 3 11 1 23 -4 26 -5 3 -9 -6 -9 -20z"/>
<path d="M5623 1440 c0 -41 2 -58 4 -37 2 20 2 54 0 75 -2 20 -4 3 -4 -38z"/>
<path d="M4533 1463 c43 -2 110 -2 150 0 40 1 5 3 -78 3 -82 0 -115 -2 -72 -3z"/>
<path d="M6222 1445 c0 -16 2 -22 5 -12 2 9 2 23 0 30 -3 6 -5 -1 -5 -18z"/>
<path d="M4354 1451 c6 -8 65 -5 74 4 3 3 -14 5 -37 5 -23 0 -40 -4 -37 -9z"/>
<path d="M4770 1456 c0 -9 40 -13 46 -5 3 5 -6 9 -20 9 -14 0 -26 -2 -26 -4z"/>
<path d="M2275 1440 l-90 -6 108 -2 c70 -1 106 2 102 8 -3 6 -12 9 -18 8 -7
-1 -52 -5 -102 -8z"/>
<path d="M5732 1420 c0 -19 2 -27 5 -17 2 9 2 25 0 35 -3 9 -5 1 -5 -18z"/>
<path d="M4838 1433 c6 -2 18 -2 25 0 6 3 1 5 -13 5 -14 0 -19 -2 -12 -5z"/>
<path d="M2105 1420 c-8 -13 25 -13 45 0 12 8 9 10 -12 10 -15 0 -30 -4 -33
-10z"/>
<path d="M2535 1414 c22 -8 54 -13 70 -11 26 3 26 4 -7 5 -21 1 -38 7 -38 12
0 6 -15 10 -32 9 l-33 0 40 -15z"/>
<path d="M2852 1405 c-14 -31 -15 -35 -3 -35 8 0 23 51 17 58 -2 1 -8 -9 -14
-23z"/>
<path d="M4894 1415 c11 -8 23 -15 28 -15 9 0 54 -37 74 -60 7 -8 22 -26 33
-40 11 -14 20 -19 21 -12 0 6 -4 12 -10 12 -5 0 -10 5 -10 12 0 15 -76 85
-113 103 -38 19 -48 19 -23 0z"/>
<path d="M2043 1403 c9 -2 23 -2 30 0 6 3 -1 5 -18 5 -16 0 -22 -2 -12 -5z"/>
<path d="M1975 1384 c-26 -13 -27 -14 -5 -10 14 3 31 6 38 6 6 0 12 5 12 10 0
13 -8 12 -45 -6z"/>
<path d="M2655 1390 c-4 -6 3 -10 14 -10 25 0 27 6 6 13 -8 4 -17 2 -20 -3z"/>
<path d="M6232 1360 c0 -19 2 -27 5 -17 2 9 2 25 0 35 -3 9 -5 1 -5 -18z"/>
<path d="M2718 1373 c6 -2 18 -2 25 0 6 3 1 5 -13 5 -14 0 -19 -2 -12 -5z"/>
<path d="M2778 1353 c6 -2 18 -2 25 0 6 3 1 5 -13 5 -14 0 -19 -2 -12 -5z"/>
<path d="M2825 1351 c-3 -5 2 -11 10 -15 8 -3 17 -1 20 3 3 5 -2 11 -10 15 -8
3 -17 1 -20 -3z"/>
<path d="M5712 1330 c0 -19 2 -27 5 -17 2 9 2 25 0 35 -3 9 -5 1 -5 -18z"/>
<path d="M2868 1323 c6 -2 18 -2 25 0 6 3 1 5 -13 5 -14 0 -19 -2 -12 -5z"/>
<path d="M2910 1310 c0 -5 5 -10 11 -10 5 0 7 5 4 10 -3 6 -8 10 -11 10 -2 0
-4 -4 -4 -10z"/>
<path d="M6014 1220 c0 -52 1 -74 3 -47 2 26 2 68 0 95 -2 26 -3 4 -3 -48z"/>
<path d="M6340 1215 l-5 -100 -28 0 c-45 -1 -104 -66 -113 -123 -7 -49 6 -148
26 -198 12 -28 11 -36 -10 -79 -48 -99 -29 -213 47 -287 42 -40 45 -41 224
-39 84 1 87 2 122 36 54 52 72 98 72 180 -1 52 -6 80 -23 112 l-22 41 20 58
c26 74 27 184 3 226 -33 54 -75 72 -193 78 l-105 5 -5 95 -6 95 -4 -100z m21
-255 l5 -95 2 98 2 99 100 -4 c88 -3 102 -6 122 -26 20 -19 23 -32 22 -92 -1
-66 -18 -130 -34 -130 -4 0 -22 8 -41 18 -25 12 -58 17 -120 17 -69 0 -91 -4
-106 -17 -37 -34 -48 -18 -68 94 -8 42 10 108 30 108 7 0 18 7 25 15 7 9 23
15 34 13 19 -3 21 -11 27 -98z"/>
<path d="M6290 986 c0 -8 5 -18 10 -21 6 -3 10 1 10 9 0 8 -4 18 -10 21 -5 3
-10 -1 -10 -9z"/>
<path d="M6313 885 c0 -22 2 -30 4 -17 2 12 2 30 0 40 -3 9 -5 -1 -4 -23z"/>
<path d="M2948 1293 c7 -3 16 -2 19 1 4 3 -2 6 -13 5 -11 0 -14 -3 -6 -6z"/>
<path d="M5603 1250 c0 -30 2 -43 4 -27 2 15 2 39 0 55 -2 15 -4 2 -4 -28z"/>
<path d="M6252 1260 c0 -19 2 -27 5 -17 2 9 2 25 0 35 -3 9 -5 1 -5 -18z"/>
<path d="M5702 1250 c0 -19 2 -27 5 -17 2 9 2 25 0 35 -3 9 -5 1 -5 -18z"/>
<path d="M2318 1263 c7 -3 16 -2 19 1 4 3 -2 6 -13 5 -11 0 -14 -3 -6 -6z"/>
<path d="M4488 1263 c7 -3 16 -2 19 1 4 3 -2 6 -13 5 -11 0 -14 -3 -6 -6z"/>
<path d="M5052 1250 c0 -14 2 -19 5 -12 2 6 2 18 0 25 -3 6 -5 1 -5 -13z"/>
<path d="M2358 1243 c7 -3 16 -2 19 1 4 3 -2 6 -13 5 -11 0 -14 -3 -6 -6z"/>
<path d="M3057 1237 c63 -36 83 -45 83 -37 0 5 -10 12 -22 16 -12 3 -28 13
-36 20 -7 8 -21 14 -30 14 -13 0 -12 -3 5 -13z"/>
<path d="M4418 1243 c-10 -2 -18 -9 -18 -14 0 -6 5 -7 11 -4 6 4 23 11 37 15
19 6 21 8 7 8 -11 0 -28 -2 -37 -5z"/>
<path d="M2398 1233 c7 -3 16 -2 19 1 4 3 -2 6 -13 5 -11 0 -14 -3 -6 -6z"/>
<path d="M2438 1213 c6 -2 18 -2 25 0 6 3 1 5 -13 5 -14 0 -19 -2 -12 -5z"/>
<path d="M4358 1213 c6 -2 18 -2 25 0 6 3 1 5 -13 5 -14 0 -19 -2 -12 -5z"/>
<path d="M2480 1199 c0 -8 59 -24 65 -17 2 2 -12 8 -31 14 -19 6 -34 8 -34 3z"/>
<path d="M4325 1200 c-3 -5 -1 -10 4 -10 6 0 11 5 11 10 0 6 -2 10 -4 10 -3 0
-8 -4 -11 -10z"/>
<path d="M6262 1175 c0 -16 2 -22 5 -12 2 9 2 23 0 30 -3 6 -5 -1 -5 -18z"/>
<path d="M4288 1183 c7 -3 16 -2 19 1 4 3 -2 6 -13 5 -11 0 -14 -3 -6 -6z"/>
<path d="M2568 1163 c7 -3 16 -2 19 1 4 3 -2 6 -13 5 -11 0 -14 -3 -6 -6z"/>
<path d="M2608 1153 c7 -3 16 -2 19 1 4 3 -2 6 -13 5 -11 0 -14 -3 -6 -6z"/>
<path d="M4208 1153 c7 -3 16 -2 19 1 4 3 -2 6 -13 5 -11 0 -14 -3 -6 -6z"/>
<path d="M1740 1096 c0 -33 2 -57 5 -54 10 9 13 85 4 99 -6 9 -9 -7 -9 -45z"/>
<path d="M2648 1133 c7 -3 16 -2 19 1 4 3 -2 6 -13 5 -11 0 -14 -3 -6 -6z"/>
<path d="M4168 1133 c7 -3 16 -2 19 1 4 3 -2 6 -13 5 -11 0 -14 -3 -6 -6z"/>
<path d="M2685 1120 c3 -5 8 -10 11 -10 2 0 4 5 4 10 0 6 -5 10 -11 10 -5 0
-7 -4 -4 -10z"/>
<path d="M4125 1120 c-3 -6 1 -7 9 -4 18 7 21 14 7 14 -6 0 -13 -4 -16 -10z"/>
<path d="M5052 1105 c0 -16 2 -22 5 -12 2 9 2 23 0 30 -3 6 -5 -1 -5 -18z"/>
<path d="M2728 1103 c6 -2 18 -2 25 0 6 3 1 5 -13 5 -14 0 -19 -2 -12 -5z"/>
<path d="M4088 1103 c7 -3 16 -2 19 1 4 3 -2 6 -13 5 -11 0 -14 -3 -6 -6z"/>
<path d="M2770 1090 c0 -5 5 -10 11 -10 5 0 7 5 4 10 -3 6 -8 10 -11 10 -2 0
-4 -4 -4 -10z"/>
<path d="M4050 1090 c-13 -8 -12 -10 3 -10 9 0 17 5 17 10 0 12 -1 12 -20 0z"/>
<path d="M2808 1073 c6 -2 18 -2 25 0 6 3 1 5 -13 5 -14 0 -19 -2 -12 -5z"/>
<path d="M4008 1073 c7 -3 16 -2 19 1 4 3 -2 6 -13 5 -11 0 -14 -3 -6 -6z"/>
<path d="M5031 1052 c-6 -12 -11 -27 -11 -34 0 -7 7 0 15 16 9 16 13 31 11 33
-2 3 -9 -4 -15 -15z"/>
<path d="M2858 1053 c7 -3 16 -2 19 1 4 3 -2 6 -13 5 -11 0 -14 -3 -6 -6z"/>
<path d="M3968 1053 c7 -3 16 -2 19 1 4 3 -2 6 -13 5 -11 0 -14 -3 -6 -6z"/>
<path d="M5998 1033 l-7 -33 -458 0 c-301 0 -454 -3 -447 -10 6 -6 183 -11
469 -12 l460 -3 8 -62 c5 -34 5 -86 0 -115 l-8 -53 -465 -5 c-432 -5 -465 -6
-468 -22 -3 -17 25 -18 477 -18 l480 0 6 55 c12 91 2 233 -17 247 -9 7 -18 24
-20 38 -3 23 -4 22 -10 -7z"/>
<path d="M2898 1043 c7 -3 16 -2 19 1 4 3 -2 6 -13 5 -11 0 -14 -3 -6 -6z"/>
<path d="M2938 1023 c7 -3 16 -2 19 1 4 3 -2 6 -13 5 -11 0 -14 -3 -6 -6z"/>
<path d="M3888 1023 c7 -3 16 -2 19 1 4 3 -2 6 -13 5 -11 0 -14 -3 -6 -6z"/>
<path d="M1765 1000 c2 -14 8 -43 14 -65 6 -22 17 -97 26 -167 37 -312 48
-377 63 -383 32 -12 41 16 31 90 -7 56 -39 313 -41 334 -2 22 8 18 55 -21 63
-54 98 -78 112 -78 5 0 -6 10 -25 21 -85 52 -202 190 -232 274 -6 16 -7 15 -3
-5z"/>
<path d="M2970 1016 c0 -2 7 -7 16 -10 8 -3 12 -2 9 4 -6 10 -25 14 -25 6z"/>
<path d="M3850 1009 c0 -5 5 -7 10 -4 6 3 10 8 10 11 0 2 -4 4 -10 4 -5 0 -10
-5 -10 -11z"/>
<path d="M3018 993 c7 -3 16 -2 19 1 4 3 -2 6 -13 5 -11 0 -14 -3 -6 -6z"/>
<path d="M3808 993 c6 -2 18 -2 25 0 6 3 1 5 -13 5 -14 0 -19 -2 -12 -5z"/>
<path d="M4983 967 c-12 -17 -41 -51 -64 -74 -23 -24 -37 -43 -31 -43 10 0 45
38 121 133 7 9 10 17 5 17 -5 0 -19 -15 -31 -33z"/>
<path d="M3060 980 c0 -5 5 -10 11 -10 5 0 7 5 4 10 -3 6 -8 10 -11 10 -2 0
-4 -4 -4 -10z"/>
<path d="M3750 973 l-35 -14 34 6 c34 5 49 12 40 18 -2 2 -20 -3 -39 -10z"/>
<path d="M3098 963 c7 -3 16 -2 19 1 4 3 -2 6 -13 5 -11 0 -14 -3 -6 -6z"/>
<path d="M3155 940 c11 -5 27 -9 35 -9 9 0 8 4 -5 9 -11 5 -27 9 -35 9 -9 0
-8 -4 5 -9z"/>
<path d="M3665 940 c-13 -5 -14 -9 -5 -9 8 0 24 4 35 9 13 5 14 9 5 9 -8 0
-24 -4 -35 -9z"/>
<path d="M3228 913 c7 -3 16 -2 19 1 4 3 -2 6 -13 5 -11 0 -14 -3 -6 -6z"/>
<path d="M3588 913 c-10 -2 -18 -9 -18 -14 0 -6 5 -7 11 -4 6 4 23 11 37 15
19 6 21 8 7 8 -11 0 -28 -2 -37 -5z"/>
<path d="M3265 900 c3 -5 11 -10 16 -10 6 0 7 5 4 10 -3 6 -11 10 -16 10 -6 0
-7 -4 -4 -10z"/>
<path d="M3308 883 c7 -3 16 -2 19 1 4 3 -2 6 -13 5 -11 0 -14 -3 -6 -6z"/>
<path d="M3528 883 c6 -2 18 -2 25 0 6 3 1 5 -13 5 -14 0 -19 -2 -12 -5z"/>
<path d="M3350 870 c0 -5 5 -10 11 -10 5 0 7 5 4 10 -3 6 -8 10 -11 10 -2 0
-4 -4 -4 -10z"/>
<path d="M3390 845 c10 -12 9 -15 -5 -15 -10 0 -16 -2 -13 -5 3 -3 20 -2 38 1
30 7 32 8 15 21 -27 19 -51 18 -35 -2z"/>
<path d="M3458 853 c7 -3 16 -2 19 1 4 3 -2 6 -13 5 -11 0 -14 -3 -6 -6z"/>
<path d="M3135 826 c-16 -7 -59 -45 -94 -85 -57 -65 -75 -77 -176 -126 -63
-30 -116 -55 -120 -55 -13 0 -155 -74 -155 -81 0 -21 67 -59 132 -75 62 -15
129 -18 453 -19 209 -1 353 0 320 2 -33 2 -63 7 -67 11 -7 7 -57 328 -61 390
-2 21 -6 23 -36 18 -19 -3 -45 1 -60 8 -42 22 -103 27 -136 12z"/>
<path d="M4815 799 c-27 -22 -59 -44 -70 -49 -16 -7 -17 -9 -3 -9 9 -1 23 5
30 12 7 7 35 29 62 50 27 20 45 37 40 36 -5 0 -31 -18 -59 -40z"/>
<path d="M4700 720 c-8 -5 -10 -10 -5 -10 6 0 17 5 25 10 8 5 11 10 5 10 -5 0
-17 -5 -25 -10z"/>
<path d="M2040 693 c8 -3 22 -11 30 -17 13 -10 13 -9 1 7 -7 9 -21 17 -30 16
-13 0 -14 -1 -1 -6z"/>
<path d="M4639 683 c-12 -16 -12 -17 1 -7 8 6 22 14 30 17 13 5 12 6 -1 6 -9
1 -23 -7 -30 -16z"/>
<path d="M4560 648 c-35 -20 -35 -20 -5 -13 16 4 32 10 35 14 3 5 12 11 20 14
13 5 13 5 0 5 -8 0 -31 -9 -50 -20z"/>
<path d="M2120 650 c0 -5 5 -10 11 -10 5 0 7 5 4 10 -3 6 -8 10 -11 10 -2 0
-4 -4 -4 -10z"/>
<path d="M2205 607 c17 -8 32 -13 34 -11 7 7 -3 12 -34 19 l-30 6 30 -14z"/>
<path d="M4475 610 c-13 -5 -14 -9 -5 -9 8 0 24 4 35 9 13 5 14 9 5 9 -8 0
-24 -4 -35 -9z"/>
<path d="M2258 583 c7 -3 16 -2 19 1 4 3 -2 6 -13 5 -11 0 -14 -3 -6 -6z"/>
<path d="M4428 583 c7 -3 16 -2 19 1 4 3 -2 6 -13 5 -11 0 -14 -3 -6 -6z"/>
<path d="M2295 570 c3 -5 11 -10 16 -10 6 0 7 5 4 10 -3 6 -11 10 -16 10 -6 0
-7 -4 -4 -10z"/>
<path d="M4385 570 c-3 -5 -2 -10 4 -10 5 0 13 5 16 10 3 6 2 10 -4 10 -5 0
-13 -4 -16 -10z"/>
<path d="M2338 553 c6 -2 18 -2 25 0 6 3 1 5 -13 5 -14 0 -19 -2 -12 -5z"/>
<path d="M4338 553 c6 -2 18 -2 25 0 6 3 1 5 -13 5 -14 0 -19 -2 -12 -5z"/>
<path d="M2388 533 c7 -3 16 -2 19 1 4 3 -2 6 -13 5 -11 0 -14 -3 -6 -6z"/>
<path d="M4288 533 c6 -2 18 -2 25 0 6 3 1 5 -13 5 -14 0 -19 -2 -12 -5z"/>
<path d="M2428 523 c6 -2 18 -2 25 0 6 3 1 5 -13 5 -14 0 -19 -2 -12 -5z"/>
<path d="M4248 523 c7 -3 16 -2 19 1 4 3 -2 6 -13 5 -11 0 -14 -3 -6 -6z"/>
<path d="M5114 506 c-3 -7 -4 -35 -2 -62 l3 -49 453 -3 c398 -2 452 0 452 13
0 13 -54 15 -439 15 -285 0 -442 4 -446 10 -3 6 -3 19 0 30 6 20 16 20 446 20
432 0 439 0 439 20 0 20 -7 20 -450 20 -373 0 -452 -2 -456 -14z"/>
<path d="M2488 503 c6 -2 18 -2 25 0 6 3 1 5 -13 5 -14 0 -19 -2 -12 -5z"/>
<path d="M4105 489 c-92 -25 -251 -57 -400 -80 l-120 -18 230 3 c174 3 243 7
285 19 63 19 99 43 111 75 7 19 5 22 -14 21 -12 -1 -53 -10 -92 -20z"/>
<path d="M2545 490 c3 -5 10 -10 16 -10 5 0 9 5 9 10 0 6 -7 10 -16 10 -8 0
-12 -4 -9 -10z"/>
</g>
</svg>
