<?xml version="1.0" standalone="no"?>
<!DOCTYPE svg PUBLIC "-//W3C//DTD SVG 20010904//EN"
 "http://www.w3.org/TR/2001/REC-SVG-20010904/DTD/svg10.dtd">
<svg version="1.0" xmlns="http://www.w3.org/2000/svg"
 width="612.000000pt" height="612.000000pt" viewBox="0 0 612.000000 612.000000"
 preserveAspectRatio="xMidYMid meet">

<g transform="translate(0.000000,612.000000) scale(0.100000,-0.100000)"
fill="#000000" stroke="none">
<path d="M2785 5184 c-622 -84 -1164 -421 -1510 -939 -132 -197 -256 -487
-304 -707 -105 -486 -47 -989 165 -1417 332 -673 967 -1115 1711 -1192 144
-15 418 -7 558 16 214 36 398 95 600 195 434 214 761 540 975 972 210 424 273
906 179 1378 -93 467 -371 928 -741 1228 -253 205 -607 376 -903 437 -221 45
-524 57 -730 29z m505 -235 c478 -57 939 -308 1234 -673 293 -362 437 -764
437 -1216 0 -651 -314 -1231 -861 -1593 -213 -141 -446 -234 -711 -283 -133
-25 -442 -30 -586 -10 -422 61 -794 245 -1088 541 -267 268 -442 593 -521 969
-35 167 -44 467 -19 636 43 292 144 561 296 786 409 611 1097 929 1819 843z"/>
<path d="M2432 3890 c-128 -30 -192 -177 -130 -298 61 -119 223 -143 326 -48
39 35 55 77 56 141 0 101 -56 179 -149 204 -45 12 -56 12 -103 1z"/>
<path d="M3595 3891 c-78 -20 -121 -59 -151 -138 -34 -88 11 -200 99 -245 151
-77 329 53 298 218 -21 113 -138 192 -246 165z"/>
<path d="M2896 2880 c-438 -55 -767 -288 -962 -680 -30 -60 -48 -110 -51 -145
-5 -50 -4 -56 25 -84 24 -24 39 -31 70 -31 51 0 84 27 107 87 106 282 328 501
603 593 382 128 814 48 1087 -201 104 -96 169 -195 279 -429 29 -62 116 -69
165 -13 35 41 26 105 -33 225 -117 239 -311 440 -531 550 -168 85 -341 126
-552 133 -76 2 -169 0 -207 -5z"/>
</g>
</svg>
